<?xml version="1.0" encoding="UTF-8" standalone="no"?>
<svg
   width="43.496101"
   height="44"
   viewBox="0 0 43.496101 44"
   fill="none"
   version="1.1"
   id="svg15"
   xmlns="http://www.w3.org/2000/svg"
   xmlns:svg="http://www.w3.org/2000/svg">
  <defs
     id="defs15" />
  <path
     d="m 0,44 c 0.0181033,-2.4472 0.0422409,-4.9005 0.0422409,-7.3477 0.0060345,-11.7009 0,-23.4019 0,-35.10283 0,-0.49804 0,-0.98994 0,-1.54947 C 14.555,0 28.9411,0 43.4539,0 c 0,0.55953 0,1.05757 0,1.54947 0,13.64393 0,27.28783 0,40.93183 0,0.5042 0.0301,1.0145 0.0422,1.5187 -8.8344,0 -17.6688,0 -26.4971,0 0,-2.8161 0,-5.6383 0,-8.602 6.0827,0 12.0145,0 18.0248,0 0,-8.9955 0,-17.8435 0,-26.80828 -0.5069,-0.0246 -0.9535,-0.06149 -1.4,-0.06149 C 25.7066,8.52208 17.7955,8.55282 9.87835,8.49748 8.67146,8.49134 8.3456,8.84796 8.35164,10.0531 c 0.04224,10.8586 0.02414,21.711 0.03017,32.5696 0,0.4611 0.07845,0.9161 0.11465,1.3773 C 5.66632,44 2.83618,44 0,44 Z"
     fill="#265e7c"
     id="path1" />
  <path
     d="m 26.3765,26.6361 c -3.1379,0 -6.1612,0 -9.275,0 0,-3.0682 0,-6.081 0,-9.2169 3.0595,0 6.1129,0 9.275,0 0,3.0252 0,6.0749 0,9.2169 z"
     fill="#265e7c"
     id="path15" />
</svg>
