<svg width="250" height="44" viewBox="0 0 250 44" fill="none" xmlns="http://www.w3.org/2000/svg">
<path d="M0 44C0.0181033 41.5528 0.0422409 39.0995 0.0422409 36.6523C0.0482754 24.9514 0.0422409 13.2504 0.0422409 1.54947C0.0422409 1.05143 0.0422409 0.55953 0.0422409 0C14.555 0 28.9411 0 43.4539 0C43.4539 0.55953 43.4539 1.05757 43.4539 1.54947C43.4539 15.1934 43.4539 28.8373 43.4539 42.4813C43.4539 42.9855 43.484 43.4958 43.4961 44C34.6617 44 25.8273 44 16.999 44C16.999 41.1839 16.999 38.3617 16.999 35.398C23.0817 35.398 29.0135 35.398 35.0238 35.398C35.0238 26.4025 35.0238 17.5545 35.0238 8.58972C34.5169 8.56512 34.0703 8.52823 33.6238 8.52823C25.7066 8.52208 17.7955 8.55282 9.87835 8.49748C8.67146 8.49134 8.3456 8.84796 8.35164 10.0531C8.39388 20.9117 8.37578 31.7641 8.38181 42.6227C8.38181 43.0838 8.46026 43.5388 8.49646 44C5.66632 44 2.83618 44 0 44Z" fill="#265E7C"/>
<path d="M250 33.3505C248.962 33.3505 247.924 33.3505 246.796 33.3505C246.717 32.6741 246.645 32.1146 246.56 31.389C246.228 31.6411 245.963 31.801 245.74 32.0039C243.863 33.7255 241.636 33.9715 239.301 33.4673C237.304 33.0369 236.073 31.5981 235.813 29.6367C235.517 27.3985 236.332 25.6523 238.179 24.6132C240.26 23.4388 242.584 23.4757 244.859 23.2728C245.384 23.2236 245.915 23.2236 246.416 23.199C246.741 21.0224 246.228 19.891 244.744 19.3499C242.946 18.692 240.834 19.1901 240.079 20.6288C239.681 21.3851 239.198 21.2253 238.637 21.1761C238.028 21.1207 237.424 21.047 236.7 20.967C237.014 19.0363 237.955 17.8004 239.585 17.1548C241.703 16.3125 243.893 16.2325 246.084 16.8167C248.081 17.3516 249.288 18.6797 249.716 20.7395C249.783 21.0654 249.903 21.379 250 21.6926C250 25.5785 250 29.4645 250 33.3505ZM246.41 25.308C244.436 25.6646 242.511 25.886 240.659 26.384C239.464 26.7037 239.114 27.8474 239.259 29.0402C239.385 30.1347 240.055 30.7557 241.123 30.9402C244.334 31.4936 247.079 29.5936 246.41 25.308Z" fill="#265E7C"/>
<path d="M138.46 25.0313C138.46 27.7921 138.46 30.4483 138.46 33.2091C137.265 33.2091 136.124 33.2091 134.893 33.2091C134.893 25.8183 134.893 18.4092 134.893 10.6741C138.593 10.8524 142.31 10.7602 145.936 11.2951C149.406 11.8055 151.054 14.4187 150.873 17.9849C150.673 21.9508 148.73 24.2627 145.055 24.6808C142.919 24.9145 140.753 24.9145 138.46 25.0313ZM138.514 21.9385C140.759 21.7786 142.889 21.7848 144.953 21.4159C146.612 21.1207 147.294 19.7496 147.27 17.7082C147.252 15.7283 146.582 14.5232 144.85 14.2342C142.792 13.8899 140.674 13.8899 138.508 13.7423C138.514 16.5707 138.514 19.0917 138.514 21.9385Z" fill="#265E7C"/>
<path d="M62.9511 33.2398C61.6899 33.2398 60.5856 33.2398 59.3847 33.2398C59.3847 25.8306 59.3847 18.4215 59.3847 10.9385C59.6321 10.9078 59.9097 10.834 60.1813 10.8401C63.3433 10.9078 66.5174 10.8155 69.6553 11.1107C73.3906 11.4673 75.3156 13.8837 75.3156 17.6959C75.3156 21.7418 73.3303 24.2258 69.5527 24.6685C67.4165 24.9206 65.2502 24.9145 62.945 25.0313C62.9511 27.7429 62.9511 30.4606 62.9511 33.2398ZM62.933 21.6372C65.0088 21.6372 66.97 21.8278 68.8769 21.588C70.9467 21.3298 71.8458 19.8295 71.7493 17.536C71.6587 15.4086 70.6872 14.2711 68.5571 14.0559C66.9519 13.896 65.3226 13.896 63.7054 13.9083C63.4459 13.9083 62.9752 14.351 62.9692 14.597C62.9149 16.9458 62.933 19.2946 62.933 21.6372Z" fill="#265E7C"/>
<path d="M167.449 28.5975C167.304 31.0263 165.615 33.0922 163.165 33.4796C161.511 33.7378 159.761 33.7255 158.102 33.4734C156.116 33.1722 154.584 31.924 153.751 30.024C152.327 26.7591 152.303 23.4449 153.896 20.2476C155.41 17.204 158.929 15.8575 162.73 16.6875C165.597 17.3147 167.443 19.6328 167.739 23.0084C167.823 23.9553 167.829 24.9145 167.878 25.9843C163.907 25.9843 160.129 25.9843 156.376 25.9843C156.074 28.2225 157.275 30.2946 159.122 30.8787C161.457 31.6165 163.177 30.8787 164.39 28.5975C165.379 28.5975 166.369 28.5975 167.449 28.5975ZM156.37 23.3773C159.128 23.3773 161.807 23.3773 164.48 23.3773C164.281 20.4382 163.05 19.1409 160.606 19.1163C158.06 19.0917 156.593 20.5551 156.37 23.3773Z" fill="#265E7C"/>
<path d="M116.193 26.0028C112.276 26.0028 108.541 26.0028 104.709 26.0028C104.631 27.7921 105.077 29.2985 106.441 30.3192C107.859 31.3767 109.483 31.3399 111.076 30.6881C111.407 30.5528 111.83 30.3069 111.945 30.0056C112.735 27.8843 114.425 28.6406 115.897 28.6098C115.577 31.6534 113.393 33.5226 109.905 33.7932C104.625 34.199 101.493 31.4321 101.227 26.0643C101.173 24.976 101.197 23.8508 101.402 22.787C102.639 16.4539 108.463 15.6177 112.144 17.0257C114.793 18.0402 115.849 20.2784 116.169 22.9408C116.289 23.8938 116.193 24.8653 116.193 26.0028ZM112.747 23.4757C112.97 20.7764 111.576 19.1593 109.066 19.1163C106.447 19.0732 104.709 20.8318 104.83 23.4757C107.473 23.4757 110.11 23.4757 112.747 23.4757Z" fill="#265E7C"/>
<path d="M214.988 25.1912C215.031 32.6987 209.032 34.9368 204.012 33.3382C200.693 32.2806 199.498 29.6244 199.112 26.384C198.575 21.834 200.675 17.9603 204.392 16.872C209.334 15.4271 215.133 17.6959 214.988 25.1912ZM211.567 25.0559C211.386 24.1028 211.283 23.0453 210.969 22.0553C210.372 20.18 209.075 19.313 207.101 19.3007C205.092 19.2823 203.867 20.0878 203.173 21.9693C202.479 23.8446 202.509 25.7753 202.974 27.6875C203.511 29.9011 204.82 30.9586 206.932 31.0201C209.062 31.0816 210.475 30.0117 211.084 27.7736C211.319 26.9251 211.398 26.0397 211.567 25.0559Z" fill="#265E7C"/>
<path d="M182.596 28.4008C183.621 28.4008 184.575 28.4008 185.522 28.4008C186.886 30.9217 188.92 31.7334 191.623 30.8603C192.57 30.559 193.107 29.9564 193.101 28.9296C193.095 27.9335 192.661 27.1956 191.677 26.9558C190.102 26.5808 188.497 26.3164 186.928 25.9229C185.009 25.4433 183.253 24.73 182.855 22.3935C182.493 20.2784 183.398 18.3477 185.395 17.3823C188.057 16.0973 190.808 16.128 193.506 17.2286C195.129 17.8865 195.986 19.2515 196.257 21.0715C195.618 21.1822 195.045 21.2683 194.477 21.3851C193.699 21.5511 193.15 21.3851 192.806 20.5489C191.967 18.526 187.532 18.858 186.53 20.0263C185.721 20.9732 186.071 22.5411 187.29 22.9039C188.564 23.2851 189.891 23.4572 191.189 23.7401C191.876 23.8876 192.576 24.0352 193.24 24.2566C195.618 25.0497 196.535 26.3656 196.511 28.8619C196.493 31.0816 195.352 32.6495 193.144 33.3197C190.639 34.0822 188.123 34.0268 185.679 33.0615C183.591 32.2437 182.511 30.5836 182.596 28.4008Z" fill="#265E7C"/>
<path d="M222.055 33.2582C220.848 33.2582 219.864 33.2582 218.772 33.2582C218.772 27.8351 218.772 22.4673 218.772 17.0196C219.828 17.0196 220.805 17.0196 221.898 17.0196C221.946 17.6713 221.988 18.3169 222.049 19.1593C222.423 18.815 222.688 18.5813 222.942 18.3415C224.873 16.4723 227.142 16.0542 229.64 16.8228C231.492 17.3885 232.542 18.858 232.615 20.6657C232.772 24.8284 232.663 28.9972 232.663 33.2398C231.577 33.2398 230.521 33.2398 229.32 33.2398C229.32 30.7926 229.326 28.4008 229.32 26.0028C229.32 24.7362 229.35 23.4695 229.284 22.2029C229.175 20.1861 227.914 19.1655 225.935 19.4053C223.636 19.6819 222.121 21.4036 222.073 23.9184C222.024 26.4947 222.061 29.071 222.061 31.6411C222.055 32.1453 222.055 32.6434 222.055 33.2582Z" fill="#265E7C"/>
<path d="M92.4111 27.3432C91.3128 29.0095 90.2387 30.5036 89.3154 32.09C88.7542 33.0492 88.1025 33.4734 87.0103 33.3259C86.3586 33.2398 85.6888 33.3074 84.8017 33.3074C85.1215 32.7971 85.3448 32.4159 85.5922 32.0531C87.0706 29.9072 88.531 27.749 90.0516 25.64C90.4982 25.0251 90.4861 24.5886 90.0516 23.9799C88.6939 22.0615 87.3905 20.1001 86.0689 18.1509C85.8457 17.8189 85.6465 17.4623 85.3327 16.9396C86.6301 16.9396 87.7405 16.8843 88.8387 16.9704C89.1646 16.995 89.5387 17.3639 89.7499 17.6775C90.7034 19.104 91.6085 20.5674 92.6585 22.2275C93.5576 20.9055 94.4688 19.768 95.1628 18.5075C95.8568 17.2409 96.7619 16.6875 98.174 16.9212C98.6145 16.995 99.0791 16.9335 99.7309 16.9335C99.4895 17.37 99.3446 17.6898 99.1515 17.9788C97.9024 19.8234 96.6895 21.6926 95.374 23.488C94.7706 24.3119 94.6921 24.9145 95.3197 25.7937C96.7921 27.8351 98.1378 29.9748 99.5317 32.0715C99.755 32.4097 99.9541 32.7663 100.274 33.3013C98.9886 33.3013 97.8783 33.3566 96.78 33.2705C96.4602 33.2459 96.0981 32.8709 95.8869 32.5634C94.9697 31.2046 94.1068 29.815 93.2076 28.4438C92.9964 28.1056 92.743 27.7859 92.4111 27.3432Z" fill="#265E7C"/>
<path d="M123.217 33.2398C122.939 33.2706 122.74 33.3013 122.541 33.3074C121.708 33.3136 120.882 33.3074 119.952 33.3074C119.952 25.8245 119.952 18.4153 119.952 10.9201C121.026 10.9201 122.076 10.9201 123.223 10.9201C123.217 18.3661 123.217 25.7753 123.217 33.2398Z" fill="#265E7C"/>
<path d="M180.876 17.0011C180.749 17.9849 180.634 18.8949 180.508 19.8787C180.049 19.8787 179.681 19.8787 179.313 19.8787C176.368 19.8664 174.884 21.3667 174.878 24.3857C174.871 26.8759 174.878 29.36 174.871 31.8502C174.871 32.3052 174.829 32.7602 174.805 33.2521C173.683 33.2521 172.663 33.2521 171.553 33.2521C171.553 27.8228 171.553 22.455 171.553 17.0134C172.609 17.0134 173.586 17.0134 174.654 17.0134C174.709 17.6836 174.757 18.3292 174.811 19.0117C178.281 16.6137 178.951 16.3862 180.876 17.0011Z" fill="#265E7C"/>
<path d="M78.888 17.0134C79.944 17.0134 80.9698 17.0134 82.1043 17.0134C82.1043 22.3689 82.1043 27.7306 82.1043 33.2091C81.1147 33.2091 80.0586 33.2091 78.888 33.2091C78.888 27.8658 78.888 22.4734 78.888 17.0134Z" fill="#265E7C"/>
<path d="M82.2009 10.9016C82.2009 12.0453 82.2009 13.0783 82.2009 14.2096C81.0664 14.2096 79.9802 14.2096 78.8095 14.2096C78.8095 13.0967 78.8095 12.033 78.8095 10.9016C79.938 10.9016 81 10.9016 82.2009 10.9016Z" fill="#265E7C"/>
<path d="M26.3765 26.6361C23.2386 26.6361 20.2153 26.6361 17.1015 26.6361C17.1015 23.5679 17.1015 20.5551 17.1015 17.4192C20.161 17.4192 23.2144 17.4192 26.3765 17.4192C26.3765 20.4444 26.3765 23.4941 26.3765 26.6361Z" fill="#265E7C"/>
</svg>
