<svg xmlns="http://www.w3.org/2000/svg" xmlns:xlink="http://www.w3.org/1999/xlink" viewBox="0 0 1054 208" width="1054" height="208" preserveAspectRatio="xMidYMid meet" style="width: 100%; height: 100%; transform: translate3d(0px, 0px, 0px); content-visibility: visible;"><defs><clipPath id="__lottie_element_822"><rect width="1054" height="208" x="0" y="0"></rect></clipPath><clipPath id="__lottie_element_824"><path d="M0,0 L1920,0 L1920,303 L0,303z"></path></clipPath><clipPath id="__lottie_element_831"><path d="M0,0 L1920,0 L1920,303 L0,303z"></path></clipPath><clipPath id="__lottie_element_838"><path d="M0,0 L1920,0 L1920,1920 L0,1920z"></path></clipPath></defs><g clip-path="url(#__lottie_element_822)"><g clip-path="url(#__lottie_element_838)" style="display: block;" transform="matrix(1,0,0,1,-432,-788.5)" opacity="1"><g style="display: block;" transform="matrix(1,0,0,1,941.4743041992188,960)" opacity="0.7586956521739129" fill="rgb(255,255,255)" font-size="194" font-family="Inter" font-style="normal" font-weight="400" aria-label="Web"><g stroke-linecap="butt" stroke-linejoin="round" stroke-miterlimit="4" transform="matrix(1,0,0,1,-209.51998901367188,-5)" opacity="1" style="display: inherit;"><g><g transform="matrix(1,0,0,1,0,0)" opacity="1" style="display: block;"><path d=" M60.35,0 C60.35,0 91.49,-112.43 91.49,-112.43 C91.49,-112.43 92.59,-112.43 92.59,-112.43 C92.59,-112.43 123.73,0 123.73,0 C123.73,0 141.37,0 141.37,0 C141.37,0 179.95,-141.09 179.95,-141.09 C179.95,-141.09 162.59,-141.09 162.59,-141.09 C162.59,-141.09 133.1,-26.18 133.1,-26.18 C133.1,-26.18 131.72,-26.18 131.72,-26.18 C131.72,-26.18 101.69,-141.09 101.69,-141.09 C101.69,-141.09 82.4,-141.09 82.4,-141.09 C82.4,-141.09 52.36,-26.18 52.36,-26.18 C52.36,-26.18 50.98,-26.18 50.98,-26.18 C50.98,-26.18 21.5,-141.09 21.5,-141.09 C21.5,-141.09 4.13,-141.09 4.13,-141.09 C4.13,-141.09 42.71,0 42.71,0 C42.71,0 60.35,0 60.35,0z"></path><g opacity="1" transform="matrix(1.940000057220459,0,0,1.940000057220459,0,0)"></g></g></g></g><g stroke-linecap="butt" stroke-linejoin="round" stroke-miterlimit="4" transform="matrix(1,0,0,1,-24.657400131225586,-5)" opacity="1" style="display: inherit;"><g><g transform="matrix(1,0,0,1,0,0)" opacity="1" style="display: block;"><path d=" M78.6,-1.14 C84.35,-3.36 89.17,-6.49 93.07,-10.51 C96.98,-14.52 99.76,-19.2 101.41,-24.53 C101.41,-24.53 85.7,-28.94 85.7,-28.94 C84.32,-25.26 82.37,-22.19 79.85,-19.74 C77.32,-17.28 74.32,-15.44 70.85,-14.23 C67.39,-13.01 63.52,-12.4 59.25,-12.4 C52.68,-12.4 46.92,-13.84 41.95,-16.71 C36.99,-19.58 33.13,-23.78 30.35,-29.31 C27.57,-34.85 26.18,-41.61 26.18,-49.6 C26.18,-49.6 26.18,-58.97 26.18,-58.97 C26.18,-64.8 27.44,-70.27 29.97,-75.37 C32.49,-80.47 36.11,-84.61 40.82,-87.8 C45.52,-90.99 51.12,-92.59 57.59,-92.59 C63.47,-92.59 68.58,-91.24 72.92,-88.53 C77.26,-85.82 80.61,-82.12 82.98,-77.44 C85.34,-72.75 86.53,-67.42 86.53,-61.45 C86.53,-61.45 21.5,-61.45 21.5,-61.45 C21.5,-61.45 21.5,-47.4 21.5,-47.4 C21.5,-47.4 103.06,-47.4 103.06,-47.4 C103.06,-47.4 103.06,-54.29 103.06,-54.29 C103.06,-64.16 101.75,-72.47 99.14,-79.23 C96.52,-85.98 93.01,-91.41 88.6,-95.52 C84.19,-99.63 79.3,-102.6 73.92,-104.44 C68.55,-106.28 63.11,-107.2 57.59,-107.2 C48.04,-107.2 39.69,-104.86 32.55,-100.2 C25.41,-95.54 19.85,-89.07 15.88,-80.78 C11.91,-72.48 9.92,-62.92 9.92,-52.08 C9.92,-41.24 11.91,-31.75 15.88,-23.6 C19.85,-15.44 25.52,-9.11 32.9,-4.58 C40.27,-0.06 49.05,2.2 59.25,2.2 C66.41,2.2 72.86,1.09 78.6,-1.14z"></path><g opacity="1" transform="matrix(1.940000057220459,0,0,1.940000057220459,0,0)"></g></g></g></g><g stroke-linecap="butt" stroke-linejoin="round" stroke-miterlimit="4" transform="matrix(1,0,0,1,89.10420227050781,-5)" opacity="1" style="display: inherit;"><g><g transform="matrix(1,0,0,1,0,0)" opacity="1" style="display: block;"><path d=" M36.51,-73.68 C38.81,-79.63 42.21,-84.27 46.71,-87.6 C51.21,-90.93 56.77,-92.59 63.38,-92.59 C70.27,-92.59 76,-90.83 80.57,-87.32 C85.14,-83.81 88.56,-79.05 90.83,-73.06 C93.11,-67.07 94.25,-60.35 94.25,-52.91 C94.25,-45.38 93.08,-38.55 90.76,-32.41 C88.44,-26.28 85,-21.41 80.43,-17.81 C75.86,-14.2 70.18,-12.4 63.38,-12.4 C56.86,-12.4 51.35,-14.11 46.85,-17.53 C42.35,-20.95 38.92,-25.71 36.58,-31.79 C34.24,-37.88 33.07,-44.92 33.07,-52.91 C33.07,-60.81 34.22,-67.73 36.51,-73.68z M32.79,0 C32.79,0 32.79,-16.26 32.79,-16.26 C32.79,-16.26 34.72,-16.26 34.72,-16.26 C35.92,-14.33 37.62,-11.91 39.82,-8.99 C42.02,-6.07 45.17,-3.48 49.26,-1.2 C53.35,1.07 58.79,2.2 65.59,2.2 C74.4,2.2 82.19,-0.03 88.94,-4.51 C95.69,-8.99 100.97,-15.33 104.79,-23.53 C108.6,-31.72 110.5,-41.43 110.5,-52.63 C110.5,-63.75 108.6,-73.39 104.79,-81.57 C100.97,-89.74 95.67,-96.06 88.87,-100.51 C82.07,-104.97 74.22,-107.2 65.31,-107.2 C58.42,-107.2 52.97,-106.06 48.95,-103.79 C44.93,-101.51 41.85,-98.94 39.72,-96.07 C37.58,-93.2 35.92,-90.85 34.72,-89.01 C34.72,-89.01 33.34,-89.01 33.34,-89.01 C33.34,-89.01 33.34,-141.09 33.34,-141.09 C33.34,-141.09 17.09,-141.09 17.09,-141.09 C17.09,-141.09 17.09,0 17.09,0 C17.09,0 32.79,0 32.79,0z"></path><g opacity="1" transform="matrix(1.940000057220459,0,0,1.940000057220459,0,0)"></g></g></g></g></g></g><g clip-path="url(#__lottie_element_831)" style="display: none;" transform="matrix(1,0,0,1,-432,9)" opacity="1"><g style="display: block;" transform="matrix(1,0,0,1,938,151.5)" opacity="1" fill="rgb(255,255,255)" font-size="194" font-family="Inter" font-style="normal" font-weight="400" aria-label="Digital"><g stroke-linecap="butt" stroke-linejoin="round" stroke-miterlimit="4" transform="matrix(1,0,0,1,-290.1560974121094,-5)" opacity="1" style="display: inherit;"><g><g transform="matrix(1,0,0,1,0,0)" opacity="1" style="display: block;"><path d=" M34.17,-125.94 C34.17,-125.94 61.45,-125.94 61.45,-125.94 C72.47,-125.94 81.68,-123.72 89.08,-119.29 C96.47,-114.85 102.03,-108.52 105.75,-100.27 C109.47,-92.03 111.33,-82.21 111.33,-70.82 C111.33,-59.34 109.45,-49.44 105.68,-41.13 C101.91,-32.82 96.19,-26.41 88.53,-21.91 C80.86,-17.41 71.19,-15.16 59.52,-15.16 C59.52,-15.16 34.17,-15.16 34.17,-15.16 C34.17,-15.16 34.17,-125.94 34.17,-125.94z M97.14,-8.51 C107.15,-14.18 114.77,-22.31 120.01,-32.9 C125.25,-43.48 127.86,-56.12 127.86,-70.82 C127.86,-85.43 125.27,-97.98 120.08,-108.47 C114.89,-118.96 107.43,-127.03 97.69,-132.65 C87.95,-138.28 76.24,-141.09 62.55,-141.09 C62.55,-141.09 17.09,-141.09 17.09,-141.09 C17.09,-141.09 17.09,0 17.09,0 C17.09,0 60.63,0 60.63,0 C74.95,0 87.13,-2.84 97.14,-8.51z"></path><g opacity="1" transform="matrix(1.940000057220459,0,0,1.940000057220459,0,0)"></g></g></g></g><g stroke-linecap="butt" stroke-linejoin="round" stroke-miterlimit="4" transform="matrix(1,0,0,1,-149.93289184570312,-5)" opacity="1" style="display: inherit;"><g><g transform="matrix(1,0,0,1,0,0)" opacity="1" style="display: block;"><path d=" M31.31,-126.69 C33.59,-128.85 34.72,-131.44 34.72,-134.48 C34.72,-137.51 33.59,-140.1 31.31,-142.26 C29.04,-144.42 26.32,-145.5 23.15,-145.5 C19.98,-145.5 17.26,-144.42 14.98,-142.26 C12.71,-140.1 11.57,-137.51 11.57,-134.48 C11.57,-131.44 12.71,-128.85 14.98,-126.69 C17.26,-124.53 19.98,-123.45 23.15,-123.45 C26.32,-123.45 29.04,-124.53 31.31,-126.69z M31.14,0 C31.14,0 31.14,-105.82 31.14,-105.82 C31.14,-105.82 14.88,-105.82 14.88,-105.82 C14.88,-105.82 14.88,0 14.88,0 C14.88,0 31.14,0 31.14,0z"></path><g opacity="1" transform="matrix(1.940000057220459,0,0,1.940000057220459,0,0)"></g></g></g></g><g stroke-linecap="butt" stroke-linejoin="round" stroke-miterlimit="4" transform="matrix(1,0,0,1,-103.14010620117188,-5)" opacity="1" style="display: inherit;"><g><g transform="matrix(1,0,0,1,0,0)" opacity="1" style="display: block;"><path d=" M39.99,-21.05 C35.42,-24.24 31.98,-28.65 29.66,-34.27 C27.34,-39.9 26.18,-46.39 26.18,-53.74 C26.18,-60.9 27.32,-67.42 29.59,-73.3 C31.86,-79.18 35.28,-83.86 39.85,-87.35 C44.42,-90.84 50.15,-92.59 57.04,-92.59 C63.66,-92.59 69.21,-90.94 73.71,-87.63 C78.21,-84.32 81.61,-79.75 83.91,-73.92 C86.21,-68.09 87.35,-61.36 87.35,-53.74 C87.35,-45.93 86.18,-39.22 83.84,-33.62 C81.5,-28.02 78.08,-23.72 73.58,-20.74 C69.08,-17.75 63.56,-16.26 57.04,-16.26 C50.24,-16.26 44.56,-17.85 39.99,-21.05z M80.64,37.86 C87.55,35.17 93.06,30.97 97.17,25.25 C101.28,19.53 103.34,12.13 103.34,3.03 C103.34,3.03 103.34,-105.82 103.34,-105.82 C103.34,-105.82 87.63,-105.82 87.63,-105.82 C87.63,-105.82 87.63,-89.01 87.63,-89.01 C87.63,-89.01 85.98,-89.01 85.98,-89.01 C84.78,-90.85 83.09,-93.2 80.91,-96.07 C78.73,-98.94 75.61,-101.51 71.55,-103.79 C67.48,-106.06 62,-107.2 55.11,-107.2 C46.2,-107.2 38.35,-104.98 31.55,-100.55 C24.75,-96.12 19.45,-89.87 15.64,-81.81 C11.83,-73.75 9.92,-64.3 9.92,-53.46 C9.92,-42.44 11.88,-33.07 15.81,-25.35 C19.74,-17.64 25.09,-11.76 31.86,-7.72 C38.64,-3.67 46.3,-1.65 54.84,-1.65 C61.73,-1.65 67.21,-2.74 71.27,-4.93 C75.33,-7.11 78.46,-9.61 80.64,-12.44 C82.82,-15.26 84.51,-17.64 85.7,-19.56 C85.7,-19.56 87.08,-19.56 87.08,-19.56 C87.08,-19.56 87.08,1.93 87.08,1.93 C87.08,10.75 84.3,17.22 78.74,21.36 C73.18,25.49 66.14,27.56 57.59,27.56 C51.21,27.56 46.05,26.63 42.13,24.77 C38.2,22.91 35.11,20.73 32.86,18.22 C30.61,15.72 28.75,13.5 27.28,11.57 C27.28,11.57 14.33,20.67 14.33,20.67 C16.53,24.34 19.51,27.8 23.25,31.04 C26.99,34.27 31.69,36.89 37.34,38.89 C42.99,40.89 49.74,41.89 57.59,41.89 C66.05,41.89 73.73,40.54 80.64,37.86z"></path><g opacity="1" transform="matrix(1.940000057220459,0,0,1.940000057220459,0,0)"></g></g></g></g><g stroke-linecap="butt" stroke-linejoin="round" stroke-miterlimit="4" transform="matrix(1,0,0,1,15.859502792358398,-5)" opacity="1" style="display: inherit;"><g><g transform="matrix(1,0,0,1,0,0)" opacity="1" style="display: block;"><path d=" M31.31,-126.69 C33.59,-128.85 34.72,-131.44 34.72,-134.48 C34.72,-137.51 33.59,-140.1 31.31,-142.26 C29.04,-144.42 26.32,-145.5 23.15,-145.5 C19.98,-145.5 17.26,-144.42 14.98,-142.26 C12.71,-140.1 11.57,-137.51 11.57,-134.48 C11.57,-131.44 12.71,-128.85 14.98,-126.69 C17.26,-124.53 19.98,-123.45 23.15,-123.45 C26.32,-123.45 29.04,-124.53 31.31,-126.69z M31.14,0 C31.14,0 31.14,-105.82 31.14,-105.82 C31.14,-105.82 14.88,-105.82 14.88,-105.82 C14.88,-105.82 14.88,0 14.88,0 C14.88,0 31.14,0 31.14,0z"></path><g opacity="1" transform="matrix(1.940000057220459,0,0,1.940000057220459,0,0)"></g></g></g></g><g stroke-linecap="butt" stroke-linejoin="round" stroke-miterlimit="4" transform="matrix(1,0,0,1,62.65231704711914,-5)" opacity="1" style="display: inherit;"><g><g transform="matrix(1,0,0,1,0,0)" opacity="1" style="display: block;"><path d=" M22.05,-25.9 C22.05,-19.75 23.48,-14.65 26.35,-10.61 C29.22,-6.57 32.85,-3.56 37.24,-1.58 C41.62,0.39 46.11,1.38 50.7,1.38 C53.74,1.38 56.24,1.16 58.21,0.72 C60.19,0.29 61.73,-0.14 62.83,-0.55 C62.83,-0.55 59.52,-15.16 59.52,-15.16 C58.83,-15.02 57.91,-14.85 56.77,-14.64 C55.62,-14.43 54.15,-14.33 52.36,-14.33 C49.97,-14.33 47.71,-14.71 45.57,-15.47 C43.44,-16.22 41.69,-17.74 40.34,-20.01 C38.98,-22.29 38.3,-25.72 38.3,-30.31 C38.3,-30.31 38.3,-131.17 38.3,-131.17 C38.3,-131.17 22.05,-131.17 22.05,-131.17 C22.05,-131.17 22.05,-25.9 22.05,-25.9z M6.06,-105.82 C6.06,-105.82 6.06,-92.04 6.06,-92.04 C6.06,-92.04 60.9,-92.04 60.9,-92.04 C60.9,-92.04 60.9,-105.82 60.9,-105.82 C60.9,-105.82 6.06,-105.82 6.06,-105.82z"></path><g opacity="1" transform="matrix(1.940000057220459,0,0,1.940000057220459,0,0)"></g></g></g></g><g stroke-linecap="butt" stroke-linejoin="round" stroke-miterlimit="4" transform="matrix(1,0,0,1,133.96670532226562,-5)" opacity="1" style="display: inherit;"><g><g transform="matrix(1,0,0,1,0,0)" opacity="1" style="display: block;"><path d=" M32.48,-16.43 C28.28,-19.3 26.18,-23.56 26.18,-29.21 C26.18,-33.34 27.29,-36.62 29.52,-39.03 C31.75,-41.44 34.69,-43.25 38.34,-44.47 C41.99,-45.69 45.93,-46.57 50.15,-47.12 C51.9,-47.35 54.18,-47.64 57.01,-47.98 C59.83,-48.33 62.75,-48.74 65.76,-49.22 C68.77,-49.71 71.43,-50.28 73.75,-50.95 C76.07,-51.61 77.57,-52.36 78.26,-53.19 C78.26,-53.19 78.26,-38.3 78.26,-38.3 C78.26,-33.89 77.12,-29.69 74.85,-25.7 C72.58,-21.7 69.22,-18.44 64.79,-15.91 C60.36,-13.39 54.93,-12.13 48.5,-12.13 C42.02,-12.13 36.69,-13.56 32.48,-16.43z M61.66,-0.28 C65.93,-2.11 69.35,-4.34 71.92,-6.96 C74.5,-9.58 76.33,-12.03 77.44,-14.33 C77.44,-14.33 78.26,-14.33 78.26,-14.33 C78.26,-14.33 78.26,0 78.26,0 C78.26,0 94.52,0 94.52,0 C94.52,0 94.52,-69.72 94.52,-69.72 C94.52,-78.12 93.14,-84.83 90.39,-89.84 C87.63,-94.84 84.17,-98.58 80.02,-101.06 C75.86,-103.54 71.57,-105.19 67.14,-105.99 C62.7,-106.79 58.79,-107.2 55.39,-107.2 C50.06,-107.2 44.65,-106.47 39.16,-105.03 C33.68,-103.58 28.62,-101.05 24.01,-97.45 C19.39,-93.84 15.71,-88.82 12.95,-82.4 C12.95,-82.4 28.38,-76.88 28.38,-76.88 C30.17,-80.74 33.27,-84.37 37.68,-87.77 C42.09,-91.17 48.18,-92.87 55.94,-92.87 C63.43,-92.87 69.02,-90.98 72.72,-87.22 C76.41,-83.45 78.26,-78.17 78.26,-71.37 C78.26,-71.37 78.26,-70.82 78.26,-70.82 C78.26,-68.2 77.33,-66.37 75.47,-65.31 C73.61,-64.25 70.67,-63.51 66.65,-63.07 C62.63,-62.63 57.41,-62 50.98,-61.18 C46.06,-60.53 41.18,-59.67 36.34,-58.59 C31.49,-57.51 27.07,-55.9 23.08,-53.74 C19.08,-51.58 15.89,-48.6 13.5,-44.81 C11.11,-41.03 9.92,-36.1 9.92,-30.04 C9.92,-23.15 11.53,-17.28 14.74,-12.44 C17.96,-7.59 22.3,-3.89 27.76,-1.34 C33.23,1.21 39.31,2.48 46.02,2.48 C52.17,2.48 57.39,1.56 61.66,-0.28z"></path><g opacity="1" transform="matrix(1.940000057220459,0,0,1.940000057220459,0,0)"></g></g></g></g><g stroke-linecap="butt" stroke-linejoin="round" stroke-miterlimit="4" transform="matrix(1,0,0,1,244.13929748535156,-5)" opacity="1" style="display: inherit;"><g><g transform="matrix(1,0,0,1,0,0)" opacity="1" style="display: block;"><path d=" M14.88,-141.09 C14.88,-141.09 14.88,0 14.88,0 C14.88,0 31.14,0 31.14,0 C31.14,0 31.14,-141.09 31.14,-141.09 C31.14,-141.09 14.88,-141.09 14.88,-141.09z"></path><g opacity="1" transform="matrix(1.940000057220459,0,0,1.940000057220459,0,0)"></g></g></g></g></g></g><g clip-path="url(#__lottie_element_824)" style="display: none;" transform="matrix(1,0,0,1,-432,11)" opacity="1"><g style="display: block;" transform="matrix(1,0,0,1,938,151.5)" opacity="1" fill="rgb(255,255,255)" font-size="194" font-family="Inter" font-style="normal" font-weight="400" aria-label="Mobile"><g stroke-linecap="butt" stroke-linejoin="round" stroke-miterlimit="4" transform="matrix(1,0,0,1,-308.78009033203125,-5)" opacity="1" style="display: inherit;"><g><g transform="matrix(1,0,0,1,0,0)" opacity="1" style="display: block;"><path d=" M17.09,0 C17.09,0 33.07,0 33.07,0 C33.07,0 33.07,-107.2 33.07,-107.2 C33.07,-107.2 34.45,-107.2 34.45,-107.2 C34.45,-107.2 78.54,0 78.54,0 C78.54,0 93.97,0 93.97,0 C93.97,0 138.06,-107.2 138.06,-107.2 C138.06,-107.2 139.44,-107.2 139.44,-107.2 C139.44,-107.2 139.44,0 139.44,0 C139.44,0 155.42,0 155.42,0 C155.42,0 155.42,-141.09 155.42,-141.09 C155.42,-141.09 135.03,-141.09 135.03,-141.09 C135.03,-141.09 87.08,-23.97 87.08,-23.97 C87.08,-23.97 85.43,-23.97 85.43,-23.97 C85.43,-23.97 37.48,-141.09 37.48,-141.09 C37.48,-141.09 17.09,-141.09 17.09,-141.09 C17.09,-141.09 17.09,0 17.09,0z"></path><g opacity="1" transform="matrix(1.940000057220459,0,0,1.940000057220459,0,0)"></g></g></g></g><g stroke-linecap="butt" stroke-linejoin="round" stroke-miterlimit="4" transform="matrix(1,0,0,1,-135.4993133544922,-5)" opacity="1" style="display: inherit;"><g><g transform="matrix(1,0,0,1,0,0)" opacity="1" style="display: block;"><path d=" M39.96,-17.98 C35.27,-21.7 31.8,-26.59 29.55,-32.65 C27.3,-38.72 26.18,-45.29 26.18,-52.36 C26.18,-59.43 27.3,-66.02 29.55,-72.13 C31.8,-78.24 35.27,-83.18 39.96,-86.94 C44.64,-90.71 50.61,-92.59 57.87,-92.59 C65.13,-92.59 71.1,-90.71 75.78,-86.94 C80.47,-83.18 83.93,-78.24 86.18,-72.13 C88.43,-66.02 89.56,-59.43 89.56,-52.36 C89.56,-45.29 88.43,-38.72 86.18,-32.65 C83.93,-26.59 80.47,-21.7 75.78,-17.98 C71.1,-14.26 65.13,-12.4 57.87,-12.4 C50.61,-12.4 44.64,-14.26 39.96,-17.98z M82.98,-4.62 C90.17,-9.16 95.77,-15.52 99.79,-23.7 C103.81,-31.87 105.82,-41.43 105.82,-52.36 C105.82,-63.38 103.81,-73 99.79,-81.22 C95.77,-89.45 90.17,-95.83 82.98,-100.38 C75.79,-104.92 67.42,-107.2 57.87,-107.2 C48.32,-107.2 39.95,-104.92 32.76,-100.38 C25.57,-95.83 19.97,-89.45 15.95,-81.22 C11.93,-73 9.92,-63.38 9.92,-52.36 C9.92,-41.43 11.93,-31.87 15.95,-23.7 C19.97,-15.52 25.57,-9.16 32.76,-4.62 C39.95,-0.07 48.32,2.2 57.87,2.2 C67.42,2.2 75.79,-0.07 82.98,-4.62z"></path><g opacity="1" transform="matrix(1.940000057220459,0,0,1.940000057220459,0,0)"></g></g></g></g><g stroke-linecap="butt" stroke-linejoin="round" stroke-miterlimit="4" transform="matrix(1,0,0,1,-18.9829044342041,-5)" opacity="1" style="display: inherit;"><g><g transform="matrix(1,0,0,1,0,0)" opacity="1" style="display: block;"><path d=" M36.51,-73.68 C38.81,-79.63 42.21,-84.27 46.71,-87.6 C51.21,-90.93 56.77,-92.59 63.38,-92.59 C70.27,-92.59 76,-90.83 80.57,-87.32 C85.14,-83.81 88.56,-79.05 90.83,-73.06 C93.11,-67.07 94.25,-60.35 94.25,-52.91 C94.25,-45.38 93.08,-38.55 90.76,-32.41 C88.44,-26.28 85,-21.41 80.43,-17.81 C75.86,-14.2 70.18,-12.4 63.38,-12.4 C56.86,-12.4 51.35,-14.11 46.85,-17.53 C42.35,-20.95 38.92,-25.71 36.58,-31.79 C34.24,-37.88 33.07,-44.92 33.07,-52.91 C33.07,-60.81 34.22,-67.73 36.51,-73.68z M32.79,0 C32.79,0 32.79,-16.26 32.79,-16.26 C32.79,-16.26 34.72,-16.26 34.72,-16.26 C35.92,-14.33 37.62,-11.91 39.82,-8.99 C42.02,-6.07 45.17,-3.48 49.26,-1.2 C53.35,1.07 58.79,2.2 65.59,2.2 C74.4,2.2 82.19,-0.03 88.94,-4.51 C95.69,-8.99 100.97,-15.33 104.79,-23.53 C108.6,-31.72 110.5,-41.43 110.5,-52.63 C110.5,-63.75 108.6,-73.39 104.79,-81.57 C100.97,-89.74 95.67,-96.06 88.87,-100.51 C82.07,-104.97 74.22,-107.2 65.31,-107.2 C58.42,-107.2 52.97,-106.06 48.95,-103.79 C44.93,-101.51 41.85,-98.94 39.72,-96.07 C37.58,-93.2 35.92,-90.85 34.72,-89.01 C34.72,-89.01 33.34,-89.01 33.34,-89.01 C33.34,-89.01 33.34,-141.09 33.34,-141.09 C33.34,-141.09 17.09,-141.09 17.09,-141.09 C17.09,-141.09 17.09,0 17.09,0 C17.09,0 32.79,0 32.79,0z"></path><g opacity="1" transform="matrix(1.940000057220459,0,0,1.940000057220459,0,0)"></g></g></g></g><g stroke-linecap="butt" stroke-linejoin="round" stroke-miterlimit="4" transform="matrix(1,0,0,1,102.20889282226562,-5)" opacity="1" style="display: inherit;"><g><g transform="matrix(1,0,0,1,0,0)" opacity="1" style="display: block;"><path d=" M31.31,-126.69 C33.59,-128.85 34.72,-131.44 34.72,-134.48 C34.72,-137.51 33.59,-140.1 31.31,-142.26 C29.04,-144.42 26.32,-145.5 23.15,-145.5 C19.98,-145.5 17.26,-144.42 14.98,-142.26 C12.71,-140.1 11.57,-137.51 11.57,-134.48 C11.57,-131.44 12.71,-128.85 14.98,-126.69 C17.26,-124.53 19.98,-123.45 23.15,-123.45 C26.32,-123.45 29.04,-124.53 31.31,-126.69z M31.14,0 C31.14,0 31.14,-105.82 31.14,-105.82 C31.14,-105.82 14.88,-105.82 14.88,-105.82 C14.88,-105.82 14.88,0 14.88,0 C14.88,0 31.14,0 31.14,0z"></path><g opacity="1" transform="matrix(1.940000057220459,0,0,1.940000057220459,0,0)"></g></g></g></g><g stroke-linecap="butt" stroke-linejoin="round" stroke-miterlimit="4" transform="matrix(1,0,0,1,149.001708984375,-5)" opacity="1" style="display: inherit;"><g><g transform="matrix(1,0,0,1,0,0)" opacity="1" style="display: block;"><path d=" M14.88,-141.09 C14.88,-141.09 14.88,0 14.88,0 C14.88,0 31.14,0 31.14,0 C31.14,0 31.14,-141.09 31.14,-141.09 C31.14,-141.09 14.88,-141.09 14.88,-141.09z"></path><g opacity="1" transform="matrix(1.940000057220459,0,0,1.940000057220459,0,0)"></g></g></g></g><g stroke-linecap="butt" stroke-linejoin="round" stroke-miterlimit="4" transform="matrix(1,0,0,1,195.7944793701172,-5)" opacity="1" style="display: inherit;"><g><g transform="matrix(1,0,0,1,0,0)" opacity="1" style="display: block;"><path d=" M78.6,-1.14 C84.35,-3.36 89.17,-6.49 93.07,-10.51 C96.98,-14.52 99.76,-19.2 101.41,-24.53 C101.41,-24.53 85.7,-28.94 85.7,-28.94 C84.32,-25.26 82.37,-22.19 79.85,-19.74 C77.32,-17.28 74.32,-15.44 70.85,-14.23 C67.39,-13.01 63.52,-12.4 59.25,-12.4 C52.68,-12.4 46.92,-13.84 41.95,-16.71 C36.99,-19.58 33.13,-23.78 30.35,-29.31 C27.57,-34.85 26.18,-41.61 26.18,-49.6 C26.18,-49.6 26.18,-58.97 26.18,-58.97 C26.18,-64.8 27.44,-70.27 29.97,-75.37 C32.49,-80.47 36.11,-84.61 40.82,-87.8 C45.52,-90.99 51.12,-92.59 57.59,-92.59 C63.47,-92.59 68.58,-91.24 72.92,-88.53 C77.26,-85.82 80.61,-82.12 82.98,-77.44 C85.34,-72.75 86.53,-67.42 86.53,-61.45 C86.53,-61.45 21.5,-61.45 21.5,-61.45 C21.5,-61.45 21.5,-47.4 21.5,-47.4 C21.5,-47.4 103.06,-47.4 103.06,-47.4 C103.06,-47.4 103.06,-54.29 103.06,-54.29 C103.06,-64.16 101.75,-72.47 99.14,-79.23 C96.52,-85.98 93.01,-91.41 88.6,-95.52 C84.19,-99.63 79.3,-102.6 73.92,-104.44 C68.55,-106.28 63.11,-107.2 57.59,-107.2 C48.04,-107.2 39.69,-104.86 32.55,-100.2 C25.41,-95.54 19.85,-89.07 15.88,-80.78 C11.91,-72.48 9.92,-62.92 9.92,-52.08 C9.92,-41.24 11.91,-31.75 15.88,-23.6 C19.85,-15.44 25.52,-9.11 32.9,-4.58 C40.27,-0.06 49.05,2.2 59.25,2.2 C66.41,2.2 72.86,1.09 78.6,-1.14z"></path><g opacity="1" transform="matrix(1.940000057220459,0,0,1.940000057220459,0,0)"></g></g></g></g></g></g></g></svg>